<svg width="594" height="608" viewBox="0 0 594 608" fill="none" xmlns="http://www.w3.org/2000/svg">
<g clip-path="url(#clip0_5_11)">
<rect width="594" height="608" fill="black"/>
<path d="M0 0H594V608H0V0Z" fill="black"/>
<path d="M264.554 22.2652C275.889 21.8842 287.952 22.1357 299.36 22.1433L357.498 22.1265L573.808 22.0496C574.129 34.9638 573.873 48.7157 573.879 61.7004L573.9 136.79L573.998 358.542L573.977 508.695L573.998 555.839C574.016 562.688 574.414 574.222 573.951 580.765C559.74 581.142 544.506 580.883 530.224 580.889L442.819 580.818L394.744 580.833C380.047 580.833 365.169 581.355 350.709 578.654C329.674 574.723 314.636 567.678 297.217 555.566C282.277 566.794 265.024 574.548 246.711 578.268C229.299 581.724 212.358 581.094 194.735 581.079L150.134 581.18C107.074 581.151 62.9536 581.822 19.9874 581.198C19.6148 560.702 19.9919 539.086 19.9939 518.492L19.9492 397.308L19.9172 22.2112L171.766 22.1148C178.25 22.1456 185.642 22.1032 192.043 23.069C213.432 26.2959 234.136 36.9404 249.43 52.1185C263.268 66.0455 272.84 83.6356 277.021 102.819C281.007 121.269 280.007 137.66 280.008 156.427L280.013 213.078L280.138 417.659C280.181 440.346 275.395 458.615 258.687 475.264C249.865 484.007 238.896 490.274 226.884 493.433C216.988 495.95 209.266 495.52 199.286 495.511H179.176L116.793 495.464C116.577 491.174 116.738 485.379 116.73 480.949C116.688 470.835 116.697 460.72 116.758 450.606L116.762 363.289L116.713 225.153C116.656 194.108 116.135 161.439 116.715 130.473L171.446 130.456C171.858 156.653 171.509 183.888 171.509 210.139L171.531 360.436L171.542 411.023C171.545 420.722 171.402 430.834 171.661 440.503C173.311 440.622 175.119 440.669 176.775 440.684L192.387 440.66C202.368 440.634 211.01 441.293 218.752 433.616C225.195 427.224 225.967 419.93 226 411.291L225.959 211.585L225.963 155.647C225.977 131.78 228.728 108.586 209.684 90.2761C194.624 75.796 183.892 75.9237 164.371 75.916L142.366 75.9207L68.3346 75.9554C67.8703 93.5491 68.3159 113.398 68.326 131.158L68.345 237.498L68.5308 533.719L171.403 533.775H201.312C211.513 533.775 220.269 534.164 230.367 532.407C259.377 527.354 280.114 512.593 296.997 488.962C300.939 494.615 304.638 499.552 309.554 504.453C325.539 520.704 346.752 530.786 369.447 532.923C375.069 533.428 381.148 533.262 386.824 533.247L411.291 533.232L476.595 533.229L525.614 533.211L525.718 69.54L299.66 69.5234C292.586 49.9162 279.684 35.8331 264.554 22.2652Z" fill="white"/>
<path d="M384.874 116.518C415.239 116.042 446.779 116.503 477.248 116.464C477.607 131.499 477.308 147.505 477.308 162.657L477.272 254.189V494.879C453.987 495.229 429.886 494.908 406.538 494.911C386.919 494.858 370.569 497.022 352.303 487.561C328.707 475.341 315.295 452.909 314.087 426.419C313.775 419.594 313.814 412.647 313.808 405.668L313.805 374.811L313.799 280.438L313.796 219.487C313.796 209.96 313.751 200.477 313.959 190.951C314.856 149.811 343.006 118.751 384.874 116.518Z" fill="white"/>
<path d="M391.889 171.424C400.809 171.042 413.431 171.189 422.417 171.411C422.622 181.992 422.47 193.044 422.47 203.65L422.476 262.997L422.435 440.093C415.346 440.711 406.434 440.488 399.227 440.485C390.832 440.476 383.936 440.625 377.188 434.857C371.833 430.282 368.595 423.474 368.212 416.48C367.921 411.187 367.983 405.436 367.983 400.116L368.001 373.383L367.983 292.04V226.441L368.004 206.501C368.013 200.247 367.606 194.728 369.527 188.686C372.938 177.954 380.813 172.121 391.889 171.424Z" fill="black"/>
</g>
<defs>
<clipPath id="clip0_5_11">
<rect width="594" height="608" fill="white"/>
</clipPath>
</defs>
</svg>
